<?xml version="1.0" encoding="UTF-8" standalone="no"?>
<!DOCTYPE svg PUBLIC "-//W3C//DTD SVG 1.1//EN" "http://www.w3.org/Graphics/SVG/1.1/DTD/svg11.dtd">
<!-- Generated by Microsoft Visio, SVG Export memlocs.svg Page-1 -->
<svg xmlns="http://www.w3.org/2000/svg" xmlns:xlink="http://www.w3.org/1999/xlink" xmlns:ev="http://www.w3.org/2001/xml-events"
		width="8.26772in" height="11.6929in" viewBox="0 0 595.276 841.89" xml:space="preserve" color-interpolation-filters="sRGB"
		class="st8">
	<style type="text/css">
	<![CDATA[
		.st1 {fill:none;stroke:#000000;stroke-linecap:round;stroke-linejoin:round;stroke-width:0.24}
		.st2 {fill:#000000;font-family:Calibri;font-size:0.833336em}
		.st3 {font-size:1em}
		.st4 {fill:none;stroke:#ff0000;stroke-linecap:round;stroke-linejoin:round;stroke-width:0.24}
		.st5 {fill:#ff0000;font-family:Calibri;font-size:0.833336em}
		.st6 {fill:none;stroke:#0070c0;stroke-linecap:round;stroke-linejoin:round;stroke-width:0.24}
		.st7 {fill:#0070c0;font-family:Calibri;font-size:0.833336em}
		.st8 {fill:none;fill-rule:evenodd;font-size:12px;overflow:visible;stroke-linecap:square;stroke-miterlimit:3}
	]]>
	</style>

	<g>
		<title>Page-1</title>
		<g id="shape1003-1" transform="translate(184.259,-511.016)">
			<title>Round Corner Rectangle.1003</title>
			<desc>loc_all_regions_from true (frameOf b)</desc>
			<path d="M0 841.89 L365.67 841.89 L365.67 609.45 L0 609.45 L0 841.89 Z" class="st1"/>
			<text x="105.36" y="622.45" class="st2">loc_all_regions_from true (frameOf b)</text>		</g>
		<g id="shape1004-4" transform="translate(68.0387,-533.693)">
			<title>Round Corner Rectangle.1004</title>
			<desc>loc_region_only false (frameOf b)</desc>
			<path d="M48.19 841.89 L481.19 841.89 a0.697369 0.697369 -180 0 0 0.69738 -0.69738 L481.89 685.98 L0 685.98 L0 793.7
						 A48.1882 48.1882 -180 0 0 48.19 841.89 Z" class="st1"/>
			<text x="4" y="698.98" class="st2">loc_region_only false (frameOf b)</text>		</g>
		<g id="shape1002-7" transform="translate(184.259,-533.693)">
			<title>Round Corner Rectangle.1002</title>
			<desc>loc_region_only true (frameOf b)</desc>
			<path d="M0 841.89 L365.67 841.89 L365.67 685.98 L0 685.98 L0 841.89 Z" class="st1"/>
			<text x="115.72" y="698.98" class="st2">loc_region_only true (frameOf b)</text>		</g>
		<g id="shape1001-10" transform="translate(198.432,-547.866)">
			<title>Round Corner Rectangle.1001</title>
			<desc>loc_addresses false (frameOf b) (singleton (as_addr b))</desc>
			<path d="M26.19 841.89 L261.92 841.89 L261.92 748.35 L26.19 748.35 A26.1917 26.1917 -180 0 0 0 774.54 L0 815.7 A26.1917
						 26.1917 -180 0 0 26.19 841.89 Z" class="st1"/>
			<text x="4" y="786.12" class="st2">loc_addresses false (frameOf b) (singleton (as_addr b))</text>		</g>
		<g id="shape1000-13" transform="translate(304.448,-547.866)">
			<title>Round Corner Rectangle.1000</title>
			<desc>loc_addresses true (frameOf b) (singleton (as_addr b))</desc>
			<path d="M0 841.89 L155.91 841.89 L155.91 748.35 L0 748.35 L0 841.89 Z" class="st1"/>
			<text x="39.67" y="761.35" class="st2">loc_addresses true<tspan x="7.21" dy="1.2em" class="st3">(frameOf b) (singleton (as_addr b))</tspan></text>		</g>
		<g id="shape3-17" transform="translate(318.621,-547.866)">
			<title>Round Corner Rectangle.3</title>
			<desc>loc_buffer b</desc>
			<path d="M12.64 841.89 L113.78 841.89 A12.6423 12.6423 -180 0 0 126.43 829.25 L126.43 803.51 A12.6423 12.6423 -180 0
						 0 113.78 790.87 L12.64 790.87 A12.6423 12.6423 -180 0 0 -0 803.51 L0 829.25 A12.6423 12.6423 -180 0 0 12.64
						 841.89 Z" class="st1"/>
			<text x="38.53" y="803.87" class="st2">loc_buffer b</text>		</g>
		<g id="shape2-20" transform="translate(325.991,-547.866)">
			<title>Round Corner Rectangle</title>
			<desc>loc_buffer (gsub b j len)</desc>
			<path d="M11.34 841.89 L102.05 841.89 A11.3384 11.3384 -180 0 0 113.39 830.55 L113.39 824.88 A11.3384 11.3384 -180 0
						 0 102.05 813.54 L11.34 813.54 A11.3384 11.3384 -180 0 0 -0 824.88 L0 830.55 A11.3384 11.3384 -180 0 0 11.34
						 841.89 Z" class="st1"/>
			<text x="8.57" y="830.72" class="st2">loc_buffer (gsub b j len)</text>		</g>
		<g id="shape1005-23" transform="translate(39.6922,-511.016)">
			<title>Round Corner Rectangle.1005</title>
			<desc>loc_all_regions_from false (frameOf b)</desc>
			<path d="M51.02 841.89 L508.71 841.89 A1.52763 1.52763 -180 0 0 510.24 840.36 L510.24 609.45 L0 609.45 L0 790.87 A51.0228
						 51.0228 -180 0 0 51.02 841.89 Z" class="st1"/>
			<text x="4" y="622.45" class="st2">loc_all_regions_from false (frameOf b)</text>		</g>
		<g id="shape1006-26" transform="translate(304.469,-454.323)">
			<title>Round Corner Rectangle.1006</title>
			<desc>address_liveness_insensitive_locs</desc>
			<path d="M15.53 841.89 L139.79 841.89 A15.5315 15.5315 -180 0 0 155.32 826.36 L155.32 534.27 A15.5315 15.5315 -180 0
						 0 139.79 518.74 L15.53 518.74 A15.5315 15.5315 -180 0 0 0 534.27 L0 826.36 A15.5315 15.5315 -180 0 0 15.53
						 841.89 Z" class="st4"/>
			<text x="8.96" y="531.74" class="st5">address_liveness_insensitive_locs</text>		</g>
		<g id="shape1007-29" transform="translate(184.847,-454.323)">
			<title>Round Corner Rectangle.1007</title>
			<desc>region_liveness_insensitive_locs</desc>
			<path d="M36.51 841.89 L365.08 841.89 L365.08 521.23 A36.5075 36.5075 -180 0 0 328.57 484.72 L36.51 484.72 A36.5075 36.5075
						 -180 0 0 0 521.23 L0 805.38 A36.5075 36.5075 -180 0 0 36.51 841.89 Z" class="st6"/>
			<text x="116.64" y="497.72" class="st7">region_liveness_insensitive_locs</text>		</g>
	</g>
</svg>
